<mxfile host="app.diagrams.net" agent="Mozilla/5.0 (Windows NT 10.0; Win64; x64) AppleWebKit/537.36 (KHTML, like Gecko) Chrome/138.0.0.0 Safari/537.36" version="28.0.7">
  <diagram name="ページ1" id="2Jr8arqYw_eAWK_gp_jr">
    <mxGraphModel dx="1426" dy="1918" grid="1" gridSize="10" guides="1" tooltips="1" connect="1" arrows="1" fold="1" page="1" pageScale="1" pageWidth="827" pageHeight="1169" math="0" shadow="0">
      <root>
        <mxCell id="0" />
        <mxCell id="1" parent="0" />
        <mxCell id="e03xDLOFCDh9O4zgA757-1" value="AWS Cloud" style="points=[[0,0],[0.25,0],[0.5,0],[0.75,0],[1,0],[1,0.25],[1,0.5],[1,0.75],[1,1],[0.75,1],[0.5,1],[0.25,1],[0,1],[0,0.75],[0,0.5],[0,0.25]];outlineConnect=0;gradientColor=none;html=1;whiteSpace=wrap;fontSize=12;fontStyle=0;container=1;pointerEvents=0;collapsible=0;recursiveResize=0;shape=mxgraph.aws4.group;grIcon=mxgraph.aws4.group_aws_cloud_alt;strokeColor=#232F3E;fillColor=none;verticalAlign=top;align=left;spacingLeft=30;fontColor=#232F3E;dashed=0;" vertex="1" parent="1">
          <mxGeometry x="380" y="-530" width="400" height="280" as="geometry" />
        </mxCell>
        <mxCell id="e03xDLOFCDh9O4zgA757-2" value="" style="sketch=0;points=[[0,0,0],[0.25,0,0],[0.5,0,0],[0.75,0,0],[1,0,0],[0,1,0],[0.25,1,0],[0.5,1,0],[0.75,1,0],[1,1,0],[0,0.25,0],[0,0.5,0],[0,0.75,0],[1,0.25,0],[1,0.5,0],[1,0.75,0]];outlineConnect=0;fontColor=#232F3E;fillColor=#C925D1;strokeColor=#ffffff;dashed=0;verticalLabelPosition=bottom;verticalAlign=top;align=center;html=1;fontSize=12;fontStyle=0;aspect=fixed;shape=mxgraph.aws4.resourceIcon;resIcon=mxgraph.aws4.dynamodb;" vertex="1" parent="e03xDLOFCDh9O4zgA757-1">
          <mxGeometry x="310" y="101" width="78" height="78" as="geometry" />
        </mxCell>
        <mxCell id="e03xDLOFCDh9O4zgA757-4" value="" style="outlineConnect=0;dashed=0;verticalLabelPosition=bottom;verticalAlign=top;align=center;html=1;shape=mxgraph.aws3.lambda_function;fillColor=#F58534;gradientColor=none;" vertex="1" parent="e03xDLOFCDh9O4zgA757-1">
          <mxGeometry x="165.5" y="110" width="69" height="72" as="geometry" />
        </mxCell>
        <mxCell id="e03xDLOFCDh9O4zgA757-7" value="" style="sketch=0;points=[[0,0,0],[0.25,0,0],[0.5,0,0],[0.75,0,0],[1,0,0],[0,1,0],[0.25,1,0],[0.5,1,0],[0.75,1,0],[1,1,0],[0,0.25,0],[0,0.5,0],[0,0.75,0],[1,0.25,0],[1,0.5,0],[1,0.75,0]];outlineConnect=0;fontColor=#232F3E;fillColor=#E7157B;strokeColor=#ffffff;dashed=0;verticalLabelPosition=bottom;verticalAlign=top;align=center;html=1;fontSize=12;fontStyle=0;aspect=fixed;shape=mxgraph.aws4.resourceIcon;resIcon=mxgraph.aws4.api_gateway;" vertex="1" parent="e03xDLOFCDh9O4zgA757-1">
          <mxGeometry x="10" y="110" width="78" height="78" as="geometry" />
        </mxCell>
        <mxCell id="e03xDLOFCDh9O4zgA757-19" value="" style="edgeStyle=orthogonalEdgeStyle;html=1;endArrow=none;elbow=vertical;startArrow=openThin;startFill=0;strokeColor=#545B64;rounded=0;" edge="1" parent="e03xDLOFCDh9O4zgA757-1">
          <mxGeometry width="100" relative="1" as="geometry">
            <mxPoint x="95.5" y="165.5" as="sourcePoint" />
            <mxPoint x="165.5" y="166" as="targetPoint" />
          </mxGeometry>
        </mxCell>
        <mxCell id="e03xDLOFCDh9O4zgA757-20" value="" style="edgeStyle=orthogonalEdgeStyle;html=1;endArrow=block;elbow=vertical;startArrow=none;endFill=1;strokeColor=#545B64;rounded=0;" edge="1" parent="e03xDLOFCDh9O4zgA757-1">
          <mxGeometry width="100" relative="1" as="geometry">
            <mxPoint x="240" y="120" as="sourcePoint" />
            <mxPoint x="310" y="120" as="targetPoint" />
          </mxGeometry>
        </mxCell>
        <mxCell id="e03xDLOFCDh9O4zgA757-21" value="" style="edgeStyle=orthogonalEdgeStyle;html=1;endArrow=none;elbow=vertical;startArrow=openThin;startFill=0;strokeColor=#545B64;rounded=0;" edge="1" parent="e03xDLOFCDh9O4zgA757-1">
          <mxGeometry width="100" relative="1" as="geometry">
            <mxPoint x="240" y="160" as="sourcePoint" />
            <mxPoint x="310" y="160" as="targetPoint" />
          </mxGeometry>
        </mxCell>
        <mxCell id="e03xDLOFCDh9O4zgA757-23" value="" style="edgeStyle=orthogonalEdgeStyle;html=1;endArrow=block;elbow=vertical;startArrow=none;endFill=1;strokeColor=#545B64;rounded=0;" edge="1" parent="e03xDLOFCDh9O4zgA757-1">
          <mxGeometry width="100" relative="1" as="geometry">
            <mxPoint x="95.5" y="120" as="sourcePoint" />
            <mxPoint x="165.5" y="120" as="targetPoint" />
          </mxGeometry>
        </mxCell>
        <mxCell id="e03xDLOFCDh9O4zgA757-24" value="Lambda&lt;div&gt;Python&lt;/div&gt;" style="text;html=1;align=center;verticalAlign=middle;resizable=0;points=[];autosize=1;strokeColor=none;fillColor=none;" vertex="1" parent="e03xDLOFCDh9O4zgA757-1">
          <mxGeometry x="164.5" y="61" width="70" height="40" as="geometry" />
        </mxCell>
        <mxCell id="e03xDLOFCDh9O4zgA757-26" value="API Gateway" style="text;html=1;align=center;verticalAlign=middle;resizable=0;points=[];autosize=1;strokeColor=none;fillColor=none;" vertex="1" parent="e03xDLOFCDh9O4zgA757-1">
          <mxGeometry x="-2" y="66" width="90" height="30" as="geometry" />
        </mxCell>
        <mxCell id="e03xDLOFCDh9O4zgA757-9" value="" style="shape=image;html=1;verticalAlign=top;verticalLabelPosition=bottom;labelBackgroundColor=#ffffff;imageAspect=0;aspect=fixed;image=https://icons.diagrams.net/icon-cache1/Ionicons_Fill_Vol_2-2187/logo-vercel-632.svg" vertex="1" parent="1">
          <mxGeometry x="180" y="-430" width="92" height="92" as="geometry" />
        </mxCell>
        <mxCell id="e03xDLOFCDh9O4zgA757-11" value="" style="edgeStyle=orthogonalEdgeStyle;html=1;endArrow=block;elbow=vertical;startArrow=none;endFill=1;strokeColor=#545B64;rounded=0;" edge="1" parent="1">
          <mxGeometry width="100" relative="1" as="geometry">
            <mxPoint x="280" y="-400" as="sourcePoint" />
            <mxPoint x="380" y="-400" as="targetPoint" />
          </mxGeometry>
        </mxCell>
        <mxCell id="e03xDLOFCDh9O4zgA757-12" value="" style="edgeStyle=orthogonalEdgeStyle;html=1;endArrow=none;elbow=vertical;startArrow=openThin;startFill=0;strokeColor=#545B64;rounded=0;" edge="1" parent="1">
          <mxGeometry width="100" relative="1" as="geometry">
            <mxPoint x="280" y="-360" as="sourcePoint" />
            <mxPoint x="380" y="-360" as="targetPoint" />
          </mxGeometry>
        </mxCell>
        <mxCell id="e03xDLOFCDh9O4zgA757-25" value="DynamoDB" style="text;html=1;align=center;verticalAlign=middle;resizable=0;points=[];autosize=1;strokeColor=none;fillColor=none;" vertex="1" parent="1">
          <mxGeometry x="680" y="-482" width="80" height="30" as="geometry" />
        </mxCell>
        <mxCell id="e03xDLOFCDh9O4zgA757-27" value="Vercel&lt;div&gt;Next.js&lt;/div&gt;" style="text;html=1;align=center;verticalAlign=middle;resizable=0;points=[];autosize=1;strokeColor=none;fillColor=none;" vertex="1" parent="1">
          <mxGeometry x="196" y="-476" width="60" height="40" as="geometry" />
        </mxCell>
      </root>
    </mxGraphModel>
  </diagram>
</mxfile>
